<svg xmlns="http://www.w3.org/2000/svg" xml:space="preserve" width="56.053" height="88.077" fill-rule="evenodd" clip-rule="evenodd" image-rendering="optimizeQuality" shape-rendering="geometricPrecision" text-rendering="geometricPrecision" viewBox="0 0 11.652 18.308"><path fill="#EA9000" d="m5.826 6.727-1.457-.841-1.456-.841v3.364l1.456.841 1.457.841z"/><path fill="#2941CF" d="m4.369 5.886 1.457.841 1.456-.841 1.457-.841-1.457-.84-1.456-.841-1.457.841-1.456.84z"/><path fill="#BD3BB8" d="m7.282 5.886-1.456.841v3.364l1.456-.841 1.457-.841V5.045z"/><path fill="#FFC55F" d="m4.369 9.25-1.456-.841V5.045l-1.457.841L0 6.727v3.364l1.456.84 1.457.841 1.456-.841 1.457-.84z"/><path fill="#C84EC3" d="m7.282 9.25-1.456.841 1.456.84 1.457.841 1.456-.841 1.457-.84V6.727l-1.457-.841-1.456-.841v3.364z"/><path fill="#3C53DA" d="m4.369 4.205 1.457-.841 1.456.841 1.457.84V1.682L7.282.841 5.826 0 4.369.841l-1.456.841v3.363z"/><path fill="#586EDF" d="m4.369 4.205 1.457-.841V0L4.369.841l-1.456.841v3.363z"/><path fill="#FFA50B" d="m4.369 9.25-1.456-.841L0 10.091l1.456.84 1.457.841 1.456-.841 1.457-.84z"/><path fill="#D067CE" d="M8.739 6.727v1.682l2.913 1.682V6.727l-1.457-.841-1.456-.841z"/><path fill="#FFFFFF" fill-rule="nonzero" d="M3.228 17.166v-.23c-.199.187-.445.28-.739.28-.413 0-.738-.13-.974-.388-.236-.259-.354-.603-.354-1.034v-1.731h.937v1.564c0 .22.047.396.14.53a.463.463 0 0 0 .407.202c.26 0 .455-.103.583-.31v-1.986h.937v3.103h-.937zM7.002 17.166h-.857c-.293 0-.525-.085-.695-.254-.17-.17-.254-.404-.254-.702v-1.328h-.404l-.205-.82h.609v-.465l.937-.465v.93h.98l-.204.82h-.776v1.062c0 .132.028.226.084.282.056.056.148.084.276.084h.509v.856zM7.933 18.308l.422-1.142-1.142-3.103h.993l.646 1.967.645-1.967h.993l-1.564 4.245z"/></svg>
